<?xml version="1.0" encoding="UTF-8" standalone="no"?>
<!DOCTYPE svg PUBLIC "-//W3C//DTD SVG 1.1//EN"
 "http://www.w3.org/Graphics/SVG/1.1/DTD/svg11.dtd">
<!-- Generated by graphviz version 3.0.0 (20220226.1711)
 -->
<!-- Title: Graph Pages: 1 -->
<svg width="169pt" height="276pt"
 viewBox="0.00 0.00 169.00 276.00" xmlns="http://www.w3.org/2000/svg" xmlns:xlink="http://www.w3.org/1999/xlink">
<g id="graph0" class="graph" transform="scale(1 1) rotate(0) translate(4 272)">
<title>Graph</title>
<polygon fill="white" stroke="transparent" points="-4,4 -4,-272 165,-272 165,4 -4,4"/>
<g id="clust1" class="cluster">
<title>cluster_Cluster</title>
<polygon fill="lightgreen" stroke="black" stroke-dasharray="1,5" points="63,-8 63,-204 153,-204 153,-8 63,-8"/>
</g>
<!-- Node1873170561824 -->
<g id="node1" class="node">
<title>Node1873170561824</title>
<ellipse fill="none" stroke="black" cx="63" cy="-250" rx="27" ry="18"/>
<text text-anchor="middle" x="63" y="-246.3" font-family="Times New Roman,serif" font-size="14.00">A</text>
</g>
<!-- Node1873170560960 -->
<g id="node2" class="node">
<title>Node1873170560960</title>
<ellipse fill="none" stroke="black" cx="27" cy="-178" rx="27" ry="18"/>
<text text-anchor="middle" x="27" y="-174.3" font-family="Times New Roman,serif" font-size="14.00">B</text>
</g>
<!-- Node1873170561824&#45;&#45;Node1873170560960 -->
<g id="edge1" class="edge">
<title>Node1873170561824&#45;&#45;Node1873170560960</title>
<path fill="none" stroke="black" d="M54.65,-232.76C48.83,-221.46 41.11,-206.44 35.3,-195.15"/>
</g>
<!-- Node1873175991712 -->
<g id="node3" class="node">
<title>Node1873175991712</title>
<ellipse fill="none" stroke="black" cx="99" cy="-178" rx="27" ry="18"/>
<text text-anchor="middle" x="99" y="-174.3" font-family="Times New Roman,serif" font-size="14.00">1</text>
</g>
<!-- Node1873170561824&#45;&#45;Node1873175991712 -->
<g id="edge5" class="edge">
<title>Node1873170561824&#45;&#45;Node1873175991712</title>
<path fill="none" stroke="black" d="M71.35,-232.76C77.17,-221.46 84.89,-206.44 90.7,-195.15"/>
</g>
<!-- Node1873175991424 -->
<g id="node4" class="node">
<title>Node1873175991424</title>
<ellipse fill="none" stroke="black" cx="98" cy="-106" rx="27" ry="18"/>
<text text-anchor="middle" x="98" y="-102.3" font-family="Times New Roman,serif" font-size="14.00">2</text>
</g>
<!-- Node1873175991712&#45;&#45;Node1873175991424 -->
<g id="edge3" class="edge">
<title>Node1873175991712&#45;&#45;Node1873175991424</title>
<path fill="none" stroke="black" d="M92.92,-160.41C91.57,-149.41 91.35,-135.03 92.36,-123.96"/>
</g>
<!-- Node1873175991712&#45;&#45;Node1873175991424 -->
<g id="edge7" class="edge">
<title>Node1873175991712&#45;&#45;Node1873175991424</title>
<path fill="none" stroke="black" d="M104.64,-160.05C105.65,-149.05 105.44,-134.76 104.1,-123.79"/>
</g>
<!-- Node1873175991568 -->
<g id="node5" class="node">
<title>Node1873175991568</title>
<ellipse fill="none" stroke="black" cx="108" cy="-34" rx="27" ry="18"/>
<text text-anchor="middle" x="108" y="-30.3" font-family="Times New Roman,serif" font-size="14.00">3</text>
</g>
<!-- Node1873175991712&#45;&#45;Node1873175991568 -->
<g id="edge4" class="edge">
<title>Node1873175991712&#45;&#45;Node1873175991568</title>
<path fill="none" stroke="black" d="M105.89,-160.17C112.46,-150.35 121,-137.31 125,-124 129.6,-108.68 128.62,-103.59 125,-88 122.03,-75.22 115.53,-61.97 110.9,-51.92"/>
</g>
<!-- Node1873175991712&#45;&#45;Node1873175991568 -->
<g id="edge8" class="edge">
<title>Node1873175991712&#45;&#45;Node1873175991568</title>
<path fill="none" stroke="black" d="M117.6,-164.59C127.64,-154.49 138.37,-139.42 143,-124 147.6,-108.68 146.62,-103.59 143,-88 139.71,-73.82 132.07,-59.07 124.38,-48.74"/>
</g>
<!-- Node1873175991424&#45;&#45;Node1873175991568 -->
<g id="edge2" class="edge">
<title>Node1873175991424&#45;&#45;Node1873175991568</title>
<path fill="none" stroke="black" d="M94.54,-88.05C94.95,-76.89 97.05,-62.34 99.86,-51.31"/>
</g>
<!-- Node1873175991424&#45;&#45;Node1873175991568 -->
<g id="edge6" class="edge">
<title>Node1873175991424&#45;&#45;Node1873175991568</title>
<path fill="none" stroke="black" d="M106.12,-88.76C108.92,-77.78 111.02,-63.29 111.45,-52.12"/>
</g>
</g>
</svg>
